<?xml version="1.0" encoding="UTF-8" standalone="no"?>
<!DOCTYPE svg PUBLIC "-//W3C//DTD SVG 1.1//EN" "http://www.w3.org/Graphics/SVG/1.1/DTD/svg11.dtd">
<svg width="100%" height="100%" viewBox="0 0 128 128" version="1.1" xmlns="http://www.w3.org/2000/svg" xmlns:xlink="http://www.w3.org/1999/xlink" xml:space="preserve" xmlns:serif="http://www.serif.com/" style="fill-rule:evenodd;clip-rule:evenodd;stroke-linecap:round;">
    <g transform="matrix(2,0,0,2,0,0)">
        <path d="M64,14L64,50C64,57.727 57.727,64 50,64L14,64C6.273,64 0,57.727 0,50L0,14C0,6.273 6.273,0 14,0L50,0C57.727,0 64,6.273 64,14Z" style="fill:rgb(75,25,121);"/>
        <g>
            <path d="M32,8L32,16" style="fill:none;fill-rule:nonzero;stroke:white;stroke-width:4px;"/>
            <path d="M32,48L32,56" style="fill:none;fill-rule:nonzero;stroke:white;stroke-width:4px;"/>
            <path d="M8,32L16,32" style="fill:none;fill-rule:nonzero;stroke:white;stroke-width:4px;"/>
            <path d="M48,32L56,32" style="fill:none;fill-rule:nonzero;stroke:white;stroke-width:4px;"/>
            <path d="M15,15L21,21" style="fill:none;fill-rule:nonzero;stroke:white;stroke-width:4px;"/>
            <path d="M43,43L49,49" style="fill:none;fill-rule:nonzero;stroke:white;stroke-width:4px;"/>
            <path d="M15,49L21,43" style="fill:none;fill-rule:nonzero;stroke:white;stroke-width:4px;"/>
            <path d="M43,21L49,15" style="fill:none;fill-rule:nonzero;stroke:white;stroke-width:4px;"/>
        </g>
        <circle cx="32" cy="32" r="11" style="fill:white;"/>
        <g transform="matrix(1.31677,0,0,1.31677,-10.1365,-10.1365)">
            <circle cx="32" cy="32" r="4" style="fill:rgb(242,175,13);"/>
        </g>
    </g>
</svg>
